<svg xmlns:dc="http://purl.org/dc/elements/1.1/" xmlns:cc="http://creativecommons.org/ns#" xmlns:rdf="http://www.w3.org/1999/02/22-rdf-syntax-ns#" xmlns:svg="http://www.w3.org/2000/svg" xmlns="http://www.w3.org/2000/svg" xmlns:sodipodi="http://sodipodi.sourceforge.net/DTD/sodipodi-0.dtd" xmlns:inkscape="http://www.inkscape.org/namespaces/inkscape" viewBox="0 0 32 32" version="1.1" x="0px" y="0px"><g transform="translate(0,-1020.3622)"><path style="color:#000000;font-style:normal;font-variant:normal;font-weight:normal;font-stretch:normal;font-size:medium;line-height:normal;font-family:sans-serif;text-indent:0;text-align:start;text-decoration:none;text-decoration-line:none;text-decoration-style:solid;text-decoration-color:#000000;letter-spacing:normal;word-spacing:normal;text-transform:none;direction:ltr;block-progression:tb;writing-mode:lr-tb;baseline-shift:baseline;text-anchor:start;white-space:normal;clip-rule:nonzero;display:inline;overflow:visible;visibility:visible;opacity:1;isolation:auto;mix-blend-mode:normal;color-interpolation:sRGB;color-interpolation-filters:linearRGB;solid-color:#000000;solid-opacity:1;fill:#000000;fill-opacity:1;fill-rule:nonzero;stroke:none;stroke-width:0.99999994;stroke-linecap:round;stroke-linejoin:round;stroke-miterlimit:4;stroke-dasharray:none;stroke-dashoffset:0;stroke-opacity:1;color-rendering:auto;image-rendering:auto;shape-rendering:auto;text-rendering:auto;enable-background:accumulate" d="m 12.5,1023.8613 c -1.062172,-10e-5 -1.99039,0.6263 -2.402344,1.5704 -0.2284146,-0.064 -0.3572703,-0.07 -0.5957029,-0.07 l -0.00195,0 c -1.4338708,4e-4 -2.5982855,1.0737 -2.6230468,2.502 -1.1833835,0.7441 -1.9686314,2.0834 -1.9687501,3.498 0,2.255 1.838746,4.0938 4.09375,4.0938 1.1794868,0 2.2619648,-0.472 3.0332038,-1.3476 0.511952,0.2216 1.031132,0.3162 1.591796,0.3163 1.077486,-4e-4 2.019665,-0.343 2.78125,-1.0918 0.624413,0.4275 1.35918,0.6532 2.123047,0.6543 l 0.002,0 c 0.55197,-9e-4 1.042041,-0.077 1.539062,-0.3086 0.695691,1.043 1.829181,1.6115 3.101563,1.6114 2.082399,0 3.78125,-1.6989 3.78125,-3.7813 0,-2.0727 -1.626234,-3.7752 -3.695312,-3.791 -0.04153,-0.3646 -0.133724,-0.719 -0.271485,-1.0449 l -0.002,0 c -0.09559,-0.2255 -0.211469,-0.4411 -0.347656,-0.6426 -0.370761,-0.5668 -1.216574,0.01 -0.828125,0.5605 0.09966,0.1475 0.185154,0.306 0.255859,0.4727 0.140526,0.3325 0.21875,0.6966 0.21875,1.082 0,0 -0.0018,0.022 -0.0059,0.07 -0.02703,0.32 0.250349,0.5822 0.568359,0.5372 0.111604,-0.016 0.221149,-0.025 0.326172,-0.025 1.54196,0 2.78125,1.2392 2.78125,2.7812 0,1.542 -1.239308,2.7813 -2.78125,2.7813 -1.046877,0 -2.003086,-0.5849 -2.478516,-1.5176 -0.133156,-0.2592 -0.458888,-0.3501 -0.707031,-0.1973 -0.437059,0.2695 -0.941769,0.4109 -1.455078,0.4121 -0.678646,-10e-4 -1.33208,-0.2489 -1.839844,-0.6992 -0.209368,-0.1863 -0.530987,-0.1642 -0.71289,0.049 -0.58769,0.6901 -1.447156,1.0876 -2.353516,1.0879 -0.520147,-10e-5 -1.032135,-0.1306 -1.488281,-0.3808 -0.220611,-0.1208 -0.496598,-0.059 -0.644531,0.1445 -0.58187,0.7969 -1.5068343,1.2676 -2.4921878,1.2676 -1.7145582,0 -3.09375,-1.3792 -3.09375,-3.0938 9.77e-5,-1.1651 0.6527549,-2.2276 1.6914063,-2.7558 0.1814631,-0.092 0.2888349,-0.2854 0.2714844,-0.4883 -0.00335,-0.04 -0.00539,-0.08 -0.00586,-0.1192 2.329e-4,-0.9081 0.7249909,-1.6354 1.6328125,-1.6367 0.2406148,6e-4 0.4782035,0.055 0.6953126,0.1582 0.293408,0.1398 0.640136,-0.033 0.705079,-0.3515 0.156554,-0.7612 0.819295,-1.3018 1.595703,-1.3047 l 0.0078,0 c 0.534559,0 1.034617,0.2623 1.339843,0.7012 0.198998,0.2853 0.621315,0.2853 0.820312,0 0.305854,-0.4398 0.806239,-0.701 1.341797,-0.7012 0.556717,3e-4 1.071968,0.2817 1.373047,0.75 0.146978,0.2287 0.449744,0.2981 0.681641,0.1562 0.43532,-0.2657 0.935293,-0.4055 1.445312,-0.4062 0.676082,0.01 0.674044,-1.0108 -0.002,-1 -0.554062,7e-4 -1.071522,0.1141 -1.570313,0.3477 -0.495596,-0.5607 -1.167261,-0.8473 -1.927734,-0.8477 -0.674083,3e-4 -1.269026,0.2166 -1.751953,0.6679 -0.481844,-0.4506 -1.075309,-0.6664 -1.748047,-0.6679 l 0.113282,0.014 -0.002,0 c -0.0376,-0.01 -0.07622,-0.015 -0.115091,-0.016 z"/><path style="color:#000000;font-style:normal;font-variant:normal;font-weight:normal;font-stretch:normal;font-size:medium;line-height:normal;font-family:sans-serif;text-indent:0;text-align:start;text-decoration:none;text-decoration-line:none;text-decoration-style:solid;text-decoration-color:#000000;letter-spacing:normal;word-spacing:normal;text-transform:none;direction:ltr;block-progression:tb;writing-mode:lr-tb;baseline-shift:baseline;text-anchor:start;white-space:normal;clip-rule:nonzero;display:inline;overflow:visible;visibility:visible;opacity:1;isolation:auto;mix-blend-mode:normal;color-interpolation:sRGB;color-interpolation-filters:linearRGB;solid-color:#000000;solid-opacity:1;fill:#000000;fill-opacity:1;fill-rule:evenodd;stroke:none;stroke-width:0.99999982;stroke-linecap:round;stroke-linejoin:round;stroke-miterlimit:4;stroke-dasharray:none;stroke-dashoffset:0;stroke-opacity:1;color-rendering:auto;image-rendering:auto;shape-rendering:auto;text-rendering:auto;enable-background:accumulate" d="m 5.5429688,1031.877 a 0.50004991,0.50004991 0 0 0 -0.4453126,0.246 c -1.0745102,1.7626 -2.1448094,2.1934 -3.8417968,3.1407 a 0.50004991,0.50004991 0 0 0 -0.171875,0.7129 c 0,0 0.3532175,0.5361 0.8496094,1.1211 0.4963918,0.5849 1.0972879,1.2435 1.8417968,1.5039 0.8849118,0.3095 1.8962531,0.2897 2.8300782,0.1445 0.9338652,-0.1447 1.7837626,-0.4185 2.3613281,-0.707 a 0.50008893,0.50008893 0 0 0 -0.4472657,-0.8946 c -0.4447967,0.2223 -1.2349296,0.4844 -2.0664062,0.6133 -0.831441,0.1293 -1.7110814,0.1231 -2.3476562,-0.1 -0.335907,-0.1175 -0.9543462,-0.6742 -1.4082032,-1.209 -0.2679123,-0.3157 -0.3229123,-0.4124 -0.4609375,-0.6054 1.4200587,-0.7807 2.6479833,-1.4493 3.7148438,-3.1993 a 0.50004991,0.50004991 0 0 0 -0.4082031,-0.7675 z"/><path style="color:#000000;font-style:normal;font-variant:normal;font-weight:normal;font-stretch:normal;font-size:medium;line-height:normal;font-family:sans-serif;text-indent:0;text-align:start;text-decoration:none;text-decoration-line:none;text-decoration-style:solid;text-decoration-color:#000000;letter-spacing:normal;word-spacing:normal;text-transform:none;direction:ltr;block-progression:tb;writing-mode:lr-tb;baseline-shift:baseline;text-anchor:start;white-space:normal;clip-rule:nonzero;display:inline;overflow:visible;visibility:visible;opacity:1;isolation:auto;mix-blend-mode:normal;color-interpolation:sRGB;color-interpolation-filters:linearRGB;solid-color:#000000;solid-opacity:1;fill:#000000;fill-opacity:1;fill-rule:evenodd;stroke:none;stroke-width:0.99999982;stroke-linecap:butt;stroke-linejoin:round;stroke-miterlimit:4;stroke-dasharray:none;stroke-dashoffset:0;stroke-opacity:1;color-rendering:auto;image-rendering:auto;shape-rendering:auto;text-rendering:auto;enable-background:accumulate" d="m 9.5195312,1034.9668 -1,0.014 c 0,0 0.022982,3.1724 0.4140626,4.8593 0.4414313,1.9034 0.9642351,3.9569 2.2011722,5.6075 0.886564,1.183 2.114087,2.2134 3.541015,2.6992 0.849076,0.289 1.800258,0.2857 2.646485,0 1.440996,-0.4832 2.698707,-1.503 3.603515,-2.6992 1.24486,-1.6454 1.775559,-3.7037 2.205078,-5.6133 0.381429,-1.6944 0.34961,-4.8652 0.34961,-4.8652 l -1,0 c 0,0 -0.01065,3.241 -0.326172,4.6426 -0.423747,1.8839 -0.943118,3.798 -2.025391,5.2285 -0.798624,1.0558 -1.923728,1.9507 -3.125,2.3535 -0.628243,0.2107 -1.382657,0.2141 -2.005859,0 -1.179206,-0.4015 -2.276245,-1.3044 -3.0625,-2.3535 -1.076511,-1.4365 -1.592366,-3.3504 -2.029297,-5.2344 -0.3263486,-1.4077 -0.3867188,-4.6465 -0.3867188,-4.6465 z"/><path style="color:#000000;font-style:normal;font-variant:normal;font-weight:normal;font-stretch:normal;font-size:medium;line-height:normal;font-family:sans-serif;text-indent:0;text-align:start;text-decoration:none;text-decoration-line:none;text-decoration-style:solid;text-decoration-color:#000000;letter-spacing:normal;word-spacing:normal;text-transform:none;direction:ltr;block-progression:tb;writing-mode:lr-tb;baseline-shift:baseline;text-anchor:start;white-space:normal;clip-rule:nonzero;display:inline;overflow:visible;visibility:visible;opacity:1;isolation:auto;mix-blend-mode:normal;color-interpolation:sRGB;color-interpolation-filters:linearRGB;solid-color:#000000;solid-opacity:1;fill:#000000;fill-opacity:1;fill-rule:evenodd;stroke:none;stroke-width:1.00000036;stroke-linecap:round;stroke-linejoin:round;stroke-miterlimit:4;stroke-dasharray:none;stroke-dashoffset:0;stroke-opacity:1;color-rendering:auto;image-rendering:auto;shape-rendering:auto;text-rendering:auto;enable-background:accumulate" d="M 15.992188,1045.1113 A 0.50005018,0.50005018 0 0 0 15.5,1045.6191 l 0,1.9864 a 0.50005018,0.50005018 0 1 0 1,0 l 0,-1.9864 a 0.50005018,0.50005018 0 0 0 -0.507812,-0.5078 z"/><path style="color:#000000;font-style:normal;font-variant:normal;font-weight:normal;font-stretch:normal;font-size:medium;line-height:normal;font-family:sans-serif;text-indent:0;text-align:start;text-decoration:none;text-decoration-line:none;text-decoration-style:solid;text-decoration-color:#000000;letter-spacing:normal;word-spacing:normal;text-transform:none;direction:ltr;block-progression:tb;writing-mode:lr-tb;baseline-shift:baseline;text-anchor:start;white-space:normal;clip-rule:nonzero;display:inline;overflow:visible;visibility:visible;opacity:1;isolation:auto;mix-blend-mode:normal;color-interpolation:sRGB;color-interpolation-filters:linearRGB;solid-color:#000000;solid-opacity:1;fill:#000000;fill-opacity:1;fill-rule:evenodd;stroke:none;stroke-width:0.99999982;stroke-linecap:round;stroke-linejoin:round;stroke-miterlimit:4;stroke-dasharray:none;stroke-dashoffset:0;stroke-opacity:1;color-rendering:auto;image-rendering:auto;shape-rendering:auto;text-rendering:auto;enable-background:accumulate" d="m 26.40625,1031.8613 a 0.50004991,0.50004991 0 0 0 -0.443359,0.7676 c 1.073056,1.7601 2.364536,2.4347 3.798828,3.2168 -0.138133,0.1931 -0.192043,0.289 -0.458985,0.6035 -0.453845,0.5348 -1.072256,1.0915 -1.408203,1.209 -1.272914,0.4454 -3.524852,-0.069 -4.414062,-0.5137 a 0.500089,0.500089 0 0 0 -0.447266,0.8946 c 1.15559,0.5778 3.421499,1.1818 5.191406,0.5625 0.744545,-0.2604 1.345412,-0.919 1.841797,-1.5039 0.496385,-0.585 0.84961,-1.1211 0.84961,-1.1211 a 0.50004991,0.50004991 0 0 0 -0.171875,-0.7129 c -1.701259,-0.9497 -2.85646,-1.4023 -3.925782,-3.1563 a 0.50004991,0.50004991 0 0 0 -0.412109,-0.2461 z"/><path style="color:#000000;font-style:normal;font-variant:normal;font-weight:normal;font-stretch:normal;font-size:medium;line-height:normal;font-family:sans-serif;text-indent:0;text-align:start;text-decoration:none;text-decoration-line:none;text-decoration-style:solid;text-decoration-color:#000000;letter-spacing:normal;word-spacing:normal;text-transform:none;direction:ltr;block-progression:tb;writing-mode:lr-tb;baseline-shift:baseline;text-anchor:start;white-space:normal;clip-rule:nonzero;display:inline;overflow:visible;visibility:visible;opacity:1;isolation:auto;mix-blend-mode:normal;color-interpolation:sRGB;color-interpolation-filters:linearRGB;solid-color:#000000;solid-opacity:1;fill:#000000;fill-opacity:1;fill-rule:nonzero;stroke:none;stroke-width:0.99999994;stroke-linecap:round;stroke-linejoin:round;stroke-miterlimit:4;stroke-dasharray:none;stroke-dashoffset:0;stroke-opacity:1;color-rendering:auto;image-rendering:auto;shape-rendering:auto;text-rendering:auto;enable-background:accumulate" d="m 13,1036.3613 c -0.822555,0 -1.500082,0.6794 -1.5,1.502 8.2e-5,0.8224 0.677559,1.498 1.5,1.498 0.822462,0 1.499918,-0.6756 1.5,-1.498 8.2e-5,-0.8226 -0.677424,-1.502 -1.5,-1.502 z m 0,1 c 0.282091,0 0.500028,0.2179 0.5,0.5 -2.8e-5,0.2821 -0.217951,0.5 -0.5,0.5 -0.282041,0 -0.499972,-0.2179 -0.5,-0.5 -2.8e-5,-0.2821 0.217917,-0.5 0.5,-0.5 z"/><path style="color:#000000;font-style:normal;font-variant:normal;font-weight:normal;font-stretch:normal;font-size:medium;line-height:normal;font-family:sans-serif;text-indent:0;text-align:start;text-decoration:none;text-decoration-line:none;text-decoration-style:solid;text-decoration-color:#000000;letter-spacing:normal;word-spacing:normal;text-transform:none;direction:ltr;block-progression:tb;writing-mode:lr-tb;baseline-shift:baseline;text-anchor:start;white-space:normal;clip-rule:nonzero;display:inline;overflow:visible;visibility:visible;opacity:1;isolation:auto;mix-blend-mode:normal;color-interpolation:sRGB;color-interpolation-filters:linearRGB;solid-color:#000000;solid-opacity:1;fill:#000000;fill-opacity:1;fill-rule:nonzero;stroke:none;stroke-width:0.99999994;stroke-linecap:round;stroke-linejoin:round;stroke-miterlimit:4;stroke-dasharray:none;stroke-dashoffset:0;stroke-opacity:1;color-rendering:auto;image-rendering:auto;shape-rendering:auto;text-rendering:auto;enable-background:accumulate" d="m 19,1036.3613 c -0.822576,0 -1.500082,0.6794 -1.5,1.502 8.2e-5,0.8224 0.677538,1.498 1.5,1.498 0.822441,0 1.499918,-0.6756 1.5,-1.498 8.2e-5,-0.8226 -0.677446,-1.502 -1.5,-1.502 z m 0,1 c 0.282083,0 0.500028,0.2179 0.5,0.5 -2.8e-5,0.2821 -0.21796,0.5 -0.5,0.5 -0.282049,0 -0.499972,-0.2179 -0.5,-0.5 -2.8e-5,-0.2821 0.217909,-0.5 0.5,-0.5 z"/><path style="opacity:1;fill:#000000;fill-opacity:1;stroke:none;stroke-width:0.26458332;stroke-linecap:round;stroke-linejoin:round;stroke-miterlimit:4;stroke-dasharray:none;stroke-dashoffset:0;stroke-opacity:1" d="m 20.564049,1025.2268 a 0.49999998,0.49999998 0 0 0 0.499994,0.5 0.49999998,0.49999998 0 0 0 0.499993,-0.5 0.49999998,0.49999998 0 0 0 -0.499993,-0.5 0.49999998,0.49999998 0 0 0 -0.499994,0.5 z"/></g></svg>